# xmcd CD database file
#
# Track frame offsets:
#	222
#	25797
#	47582
#	77437
#	110507
#	145747
#	167022
#	195987
#	222235
#	248307
#	262955
#	283522
#	300895
#
# Disc length: 4287 seconds
#
# Revision: 0
# Processed by: cddbd v1.5.2PL0 Copyright (c) Steve Scherf et al.
# Submitted via: CDex 1.51
#
DISCID=9810bd0d
DTITLE=Various Artist - Lighting the Fuse  Volume 5 1970-1989
DYEAR=1989
DGENRE=Jazz
TTITLE0=The Windjammer - Grant Green
TTITLE1=Angelina - Earl Klugh
TTITLE2=Living for the City - Noel Pointer
TTITLE3=Black Byrd - Donald Byrd
TTITLE4=Harlem River Drive - Bobbi Humphrey
TTITLE5=Always There - Ronnie Laws
TTITLE6=The Lady in my Life - Stanley Jordan
TTITLE7=Boogie on Reggae Woman - Stanley Turrentine
TTITLE8=All Night Dance - Bennie Wallace
TTITLE9=Thinkin' about your Body - Bobby McFerrin
TTITLE10=Better Days - Dianne Reeves
TTITLE11=Never Said - Dianne Reeves
TTITLE12=Timotheé - Bireli Lagrene
EXTD=YEAR: 1989
EXTT0=
EXTT1=
EXTT2=
EXTT3=
EXTT4=
EXTT5=
EXTT6=
EXTT7=
EXTT8=
EXTT9=
EXTT10=
EXTT11=
EXTT12=
PLAYORDER=
